<svg width="329" height="122" viewBox="0 0 329 122" fill="none" xmlns="http://www.w3.org/2000/svg">
<path d="M49.6 43.75L2.05 89.05C0.999999 90.1 0.549999 91.75 1.15 93.25C1.75 94.75 3.25 95.65 4.75 95.65H33.25C39.85 95.65 46.15 98.2 50.95 102.85L62.8 114.1C67.6 118.75 74.05 121.3 80.65 121.3H99.4C100.9 121.3 102.4 120.4 102.85 118.9C103.45 117.4 103.15 115.75 101.95 114.7L83.35 96.7C78.55 92.2 72.1 89.65 65.5 89.65H49.75C48.25 89.65 46.75 88.6 46.15 87.25C45.55 85.75 46 84.1 47.05 82.9L88.75 43.3C89.8 42.1 90.25 40.45 89.65 38.95C89.05 37.6 87.55 36.55 86.05 36.55H67.45C60.7 36.55 54.4 39.1 49.6 43.75ZM100.819 39.25L59.2691 78.85C58.0691 80.05 57.7691 81.7 58.3691 83.2C58.9691 84.55 60.3191 85.6 61.9691 85.6H124.969C131.569 85.6 138.019 83.05 142.819 78.4L179.719 43.3C180.769 42.1 181.219 40.45 180.619 38.95C180.019 37.6 178.519 36.55 177.019 36.55H147.319C146.419 36.55 145.669 36.1 145.369 35.35C145.069 34.6 145.219 33.7 145.819 33.1C147.019 32.05 147.319 30.4 146.719 28.9C146.119 27.4 144.769 26.5 143.119 26.5H114.769C108.169 26.5 101.719 23.95 97.0691 19.3L85.0691 8.05C80.2691 3.39999 73.9691 0.849992 67.3691 0.849992H48.6191C47.1191 0.849992 45.6191 1.75 45.0191 3.25C44.4191 4.75 44.8691 6.39999 45.9191 7.45L64.6691 25.3C69.4691 29.95 75.9191 32.5 82.5191 32.5H98.2691C99.7691 32.5 101.269 33.4 101.869 34.9C102.469 36.4 102.019 38.05 100.819 39.25ZM132.469 46.75C133.219 46.75 133.969 47.2 134.269 47.95C134.569 48.7 134.419 49.6 133.819 50.2L107.869 74.95C107.569 75.25 106.969 75.4 106.519 75.4C105.769 75.4 105.019 74.95 104.719 74.2C104.419 73.45 104.569 72.55 105.169 71.95L131.119 47.2C131.419 46.9 131.869 46.75 132.469 46.75ZM261.954 51.1L270.204 43.3C271.404 42.1 271.704 40.45 271.104 38.95C270.504 37.6 269.154 36.55 267.504 36.55H248.904C242.304 36.55 235.854 39.1 231.054 43.75L227.004 47.65C226.704 47.95 226.104 48.1 225.654 48.1C224.904 48.1 224.154 47.65 223.854 46.9C223.554 46.15 223.704 45.25 224.304 44.8L225.804 43.3C227.004 42.1 227.304 40.45 226.704 38.95C226.254 37.6 224.754 36.55 223.254 36.55H204.504C197.904 36.55 191.454 39.1 186.654 43.75L149.754 78.85C148.704 80.05 148.254 81.7 148.854 83.2C149.454 84.55 150.954 85.6 152.454 85.6H171.204C177.804 85.6 184.104 83.05 188.904 78.4L194.154 73.45C195.654 72.1 198.054 72.1 199.554 73.45L231.654 104.2C236.454 108.85 242.754 111.4 249.504 111.4H268.104C269.754 111.4 271.104 110.35 271.704 108.85C272.304 107.5 272.004 105.85 270.804 104.65L229.104 64.9C228.054 63.85 227.604 62.2 228.204 60.7C228.804 59.2 230.304 58.3 231.804 58.3H244.104C250.704 58.3 257.154 55.75 261.954 51.1ZM278.166 19.3L266.166 8.05C261.366 3.39999 255.066 0.849992 248.466 0.849992H229.716C228.216 0.849992 226.716 1.75 226.116 3.25C225.516 4.75 225.966 6.39999 227.016 7.45L245.766 25.3C250.566 29.95 257.016 32.5 263.616 32.5H279.366C280.866 32.5 282.366 33.4 282.966 34.9C283.566 36.4 283.116 38.05 281.916 39.1L240.366 78.85C239.166 80.05 238.866 81.7 239.466 83.2C240.066 84.55 241.416 85.6 243.066 85.6H261.666C268.266 85.6 274.716 83.05 279.516 78.4L326.916 33.1C328.116 32.05 328.416 30.4 327.816 28.9C327.216 27.4 325.866 26.5 324.216 26.5H295.866C289.266 26.5 282.816 23.95 278.166 19.3Z" fill="white"/>
</svg>
