<svg width="29" height="27" viewBox="0 0 29 27" fill="none" xmlns="http://www.w3.org/2000/svg">
<path d="M14.5 26.9213C12.4469 26.9213 10.7788 25.1785 10.7788 23.0335C10.7788 19.7491 8.27655 18.0063 3.72124 18.0063C1.66814 18.0063 0 16.2635 0 14.1186C0 11.9736 1.66814 10.2309 3.72124 10.2309C8.27655 10.2309 10.7788 8.42107 10.7788 5.20364C10.7788 3.05869 12.4469 1.31592 14.5 1.31592C16.5531 1.31592 18.2212 3.05869 18.2212 5.20364C18.2212 8.4881 20.7235 10.2309 25.2788 10.2309C27.3319 10.2309 29 11.9736 29 14.1186C29 16.2635 27.3319 18.0063 25.2788 18.0063C20.7235 18.0063 18.2212 19.8161 18.2212 23.0335C18.2212 25.1785 16.5531 26.9213 14.5 26.9213Z" fill="white"/>
<path d="M21.884 11.9737C21.0171 11.9737 20.3128 11.2268 20.3128 10.3075C20.3128 8.89991 19.2563 8.15301 17.3329 8.15301C16.466 8.15301 15.7617 7.40611 15.7617 6.48685C15.7617 5.56758 16.466 4.82068 17.3329 4.82068C19.2563 4.82068 20.3128 4.04506 20.3128 2.66616C20.3128 1.7469 21.0171 1 21.884 1C22.7508 1 23.4552 1.7469 23.4552 2.66616C23.4552 4.07378 24.5117 4.82068 26.435 4.82068C27.3019 4.82068 28.0062 5.56758 28.0062 6.48685C28.0062 7.40611 27.3019 8.15301 26.435 8.15301C24.5117 8.15301 23.4552 8.92864 23.4552 10.3075C23.4552 11.2268 22.7508 11.9737 21.884 11.9737Z" fill="white" stroke="#ECE2D0" stroke-width="0.5"/>
<path d="M21.884 11.4737C21.3205 11.4737 20.8128 10.9787 20.8128 10.3075C20.8128 9.46181 20.4859 8.76363 19.8359 8.29642C19.212 7.84791 18.3471 7.65301 17.3329 7.65301C16.7694 7.65301 16.2617 7.15802 16.2617 6.48685C16.2617 5.81568 16.7694 5.32068 17.3329 5.32068C18.3507 5.32068 19.2151 5.1172 19.8378 4.66513C20.4841 4.19597 20.8128 3.50008 20.8128 2.66616C20.8128 1.99499 21.3205 1.5 21.884 1.5C22.4475 1.5 22.9552 1.99499 22.9552 2.66616C22.9552 3.51188 23.282 4.21007 23.932 4.67727C24.5559 5.12578 25.4209 5.32068 26.435 5.32068C26.9985 5.32068 27.5062 5.81568 27.5062 6.48685C27.5062 7.15802 26.9985 7.65301 26.435 7.65301C25.4172 7.65301 24.5528 7.8565 23.9301 8.30856C23.2838 8.77773 22.9552 9.47361 22.9552 10.3075C22.9552 10.9787 22.4475 11.4737 21.884 11.4737Z" fill="white" stroke="#ECE2D0"/>
</svg>
